General
ID                                       : 0 (0x0)
Complete name                            : X-Men_2000_Disc1_1080p_BD50.iso
Format                                   : Blu-ray Video
File size                                : 43.4 GiB
Duration                                 : 1 h 44 min
Overall bit rate mode                    : Variable
Overall bit rate                         : 33.8 Mbps
Maximum Overall bit rate                 : 48.0 Mbps
Release Date                             : 2009-04-21 (US)

Video
ID                                       : 4113 (0x1011)
Menu ID                                  : 1 (0x1)
Format                                   : AVC
Format/Info                              : Advanced Video Codec
Format profile                           : High@L4.1
Format settings                          : CABAC / 4 Ref Frames
Format settings, CABAC                   : Yes
Format settings, Reference frames        : 4 frames
Codec ID                                 : 27
Duration                                 : 1 h 44 min
Bit rate mode                            : Variable
Bit rate                                 : 26,451 kbps
Maximum bit rate                         : 38,000 kbps
Width                                    : 1 920 pixels
Height                                   : 1 080 pixels
Display aspect ratio                     : 16:9
Original display aspect ratio            : 2.35:1
Frame rate                               : 23.976 (24000/1001) FPS
Color space                              : YUV
Chroma subsampling                       : 4:2:0
Bit depth                                : 8 bits
Scan type                                : Progressive
Bits/(Pixel*Frame)                       : 0.532
Stream size                              : 19.3 GiB (78%)
Writing library                          : x264 core 65 r1074M
Color range                              : Limited
Color primaries                          : BT.709
Transfer characteristics                 : BT.709
Matrix coefficients                      : BT.709

Audio #1 (Primary)
ID                                       : 4352 (0x1100)
Menu ID                                  : 1 (0x1)
Format                                   : DTS LBR / DTS
Format/Info                              : Digital Theater Systems
Commercial name                          : DTS-HD Master Audio
Format profile                           : MA / Core
Muxing mode                              : Stream extension
Codec ID                                 : 134
Duration                                 : 1 h 44 min
Bit rate mode                            : Variable / Constant
Bit rate                                 : 4 118 kbps / 1 509 kbps
Channel(s)                               : 6 channels / 6 channels
Channel layout                           : C L R Ls Rs LFE / C L R Ls Rs LFE
Sampling rate                            : 48.0 kHz / 48.0 kHz
Frame rate                               : 93.750 FPS (512 SPF)
Bit depth                                : 24 bits / 24 bits
Compression mode                         : Lossless / Lossy
Stream size                              : 3.01 GiB (12%)
Language                                 : English
Service kind                             : Complete Main

Audio #2
ID                                       : 4353 (0x1101)
Menu ID                                  : 1 (0x1)
Format                                   : AC-3
Format/Info                              : Audio Coding 3
Commercial name                          : Dolby Digital
Codec ID                                 : 129
Duration                                 : 1 h 44 min
Bit rate mode                            : Constant
Bit rate                                 : 448 kbps
Channel(s)                               : 6 channels
Channel layout                           : L R C LFE Ls Rs
Sampling rate                            : 48.0 kHz
Frame rate                               : 31.250 FPS (1536 SPF)
Compression mode                         : Lossy
Stream size                              : 335 MiB (1%)
Language                                 : French (Français)
Service kind                             : Complete Main

Audio #3
ID                                       : 4354 (0x1102)
Menu ID                                  : 1 (0x1)
Format                                   : AC-3
Format/Info                              : Audio Coding 3
Commercial name                          : Dolby Digital
Codec ID                                 : 129
Duration                                 : 1 h 44 min
Bit rate mode                            : Constant
Bit rate                                 : 448 kbps
Channel(s)                               : 6 channels
Channel layout                           : L R C LFE Ls Rs
Sampling rate                            : 48.0 kHz
Frame rate                               : 31.250 FPS (1536 SPF)
Compression mode                         : Lossy
Stream size                              : 335 MiB (1%)
Language                                 : Spanish (Español)
Service kind                             : Complete Main

Audio #4
ID                                       : 4355 (0x1103)
Menu ID                                  : 1 (0x1)
Format                                   : AC-3
Format/Info                              : Audio Coding 3
Commercial name                          : Dolby Digital
Codec ID                                 : 129
Duration                                 : 1 h 44 min
Bit rate mode                            : Constant
Bit rate                                 : 448 kbps
Channel(s)                               : 6 channels
Channel layout                           : L R C LFE Ls Rs
Sampling rate                            : 48.0 kHz
Frame rate                               : 31.250 FPS (1536 SPF)
Compression mode                         : Lossy
Stream size                              : 335 MiB (1%)
Language                                 : Portuguese (Português)
Service kind                             : Complete Main

Audio #5 (Commentary)
ID                                       : 4356 (0x1104)
Menu ID                                  : 1 (0x1)
Format                                   : AC-3
Format/Info                              : Audio Coding 3
Commercial name                          : Dolby Digital
Codec ID                                 : 129
Duration                                 : 1 h 44 min
Bit rate mode                            : Constant
Bit rate                                 : 224 kbps
Channel(s)                               : 2 channels
Channel layout                           : L R
Sampling rate                            : 48.0 kHz
Frame rate                               : 31.250 FPS (1536 SPF)
Compression mode                         : Lossy
Stream size                              : 167 MiB (0.5%)
Language                                 : English
Title                                    : Commentary by Director Bryan Singer and Brian Peck
Service kind                             : Complete Main

Subtitle #1
ID                                       : 4608 (0x1200)
Menu ID                                  : 1 (0x1)
Format                                   : PGS
Codec ID                                 : 144
Duration                                 : 1 h 43 min
Bit rate                                 : 31.4 kbps
Frame rate                               : 23.976 FPS
Stream size                              : 23.3 MiB
Language                                 : English (SDH)

Subtitle #2
ID                                       : 4609 (0x1201)
Menu ID                                  : 1 (0x1)
Format                                   : PGS
Codec ID                                 : 144
Duration                                 : 1 h 43 min
Bit rate                                 : 24.1 kbps
Frame rate                               : 23.976 FPS
Stream size                              : 17.8 MiB
Language                                 : French (Français)

Subtitle #3
ID                                       : 4610 (0x1202)
Menu ID                                  : 1 (0x1)
Format                                   : PGS
Codec ID                                 : 144
Duration                                 : 1 h 43 min
Bit rate                                 : 23.5 kbps
Frame rate                               : 23.976 FPS
Stream size                              : 17.4 MiB
Language                                 : Spanish (Español)

Subtitle #4
ID                                       : 4611 (0x1203)
Menu ID                                  : 1 (0x1)
Format                                   : PGS
Codec ID                                 : 144
Duration                                 : 1 h 43 min
Bit rate                                 : 22.8 kbps
Frame rate                               : 23.976 FPS
Stream size                              : 16.9 MiB
Language                                 : Portuguese (Português)

Subtitle #5
ID                                       : 4612 (0x1204)
Menu ID                                  : 1 (0x1)
Format                                   : PGS
Codec ID                                 : 144
Duration                                 : 1 h 40 min
Bit rate                                 : 18.2 kbps
Frame rate                               : 23.976 FPS
Stream size                              : 13.1 MiB
Language                                 : Cantonese (繁體中文)

Subtitle #6
ID                                       : 4613 (0x1205)
Menu ID                                  : 1 (0x1)
Format                                   : PGS
Codec ID                                 : 144
Duration                                 : 1 h 41 min
Bit rate                                 : 18.9 kbps
Frame rate                               : 23.976 FPS
Stream size                              : 13.6 MiB
Language                                 : Mandarin (繁體中文)

Subtitle #7
ID                                       : 4614 (0x1206)
Menu ID                                  : 1 (0x1)
Format                                   : PGS
Codec ID                                 : 144
Duration                                 : 1 h 39 min
Bit rate                                 : 15.4 kbps
Frame rate                               : 23.976 FPS
Stream size                              : 11.0 MiB
Language                                 : Korean (한국어)

General
ID                                       : 0 (0x0)
Complete name                            : X-Men_2000_Disc2_1080p_BD25.iso
Format                                   : Blu-ray Video
File size                                : 22.3 GiB
Duration                                 : 1 h 16 min (Evolution X Interactive Playlist)
Overall bit rate mode                    : Variable
Overall bit rate                         : 27.0 Mbps
Release Date                             : 2009-04-21 (US)

Video
ID                                       : 4113 (0x1011)
Menu ID                                  : 1 (0x1)
Format                                   : AVC
Format/Info                              : Advanced Video Codec
Format profile                           : High@L4.1
Format settings                          : CABAC / 4 Ref Frames
Format settings, CABAC                   : Yes
Format settings, Reference frames        : 4 frames
Codec ID                                 : 27
Duration                                 : 1 h 16 min
Bit rate mode                            : Variable
Bit rate                                 : 22,104 kbps
Maximum bit rate                         : 30,000 kbps
Width                                    : 1 920 pixels
Height                                   : 1 080 pixels
Display aspect ratio                     : 16:9
Frame rate                               : 23.976 (24000/1001) FPS
Color space                              : YUV
Chroma subsampling                       : 4:2:0
Bit depth                                : 8 bits
Scan type                                : Progressive
Bits/(Pixel*Frame)                       : 0.445
Stream size                              : 11.8 GiB (82%)
Writing library                          : x264 core 65
Color primaries                          : BT.709
Transfer characteristics                 : BT.709
Matrix coefficients                      : BT.709

Audio #1 (Primary)
ID                                       : 4352 (0x1100)
Menu ID                                  : 1 (0x1)
Format                                   : DTS
Format/Info                              : Digital Theater Systems
Commercial name                          : DTS 2.0 Stereo
Codec ID                                 : 130
Duration                                 : 1 h 16 min
Bit rate mode                            : Constant
Bit rate                                 : 768 kbps
Channel(s)                               : 2 channels
Channel layout                           : L R
Sampling rate                            : 48.0 kHz
Frame rate                               : 93.750 FPS (512 SPF)
Bit depth                                : 24 bits
Compression mode                         : Lossy
Stream size                              : 421 MiB (3%)
Language                                 : English
Service kind                             : Complete Main

Subtitle #1
ID                                       : 4608 (0x1200)
Menu ID                                  : 1 (0x1)
Format                                   : PGS
Codec ID                                 : 144
Language                                 : English

Subtitle #2
ID                                       : 4609 (0x1201)
Menu ID                                  : 1 (0x1)
Format                                   : PGS
Codec ID                                 : 144
Language                                 : French (Français)

Subtitle #3
ID                                       : 4610 (0x1202)
Menu ID                                  : 1 (0x1)
Format                                   : PGS
Codec ID                                 : 144
Language                                 : Spanish (Español)

Subtitle #4
ID                                       : 4611 (0x1203)
Menu ID                                  : 1 (0x1)
Format                                   : PGS
Codec ID                                 : 144
Language                                 : Portuguese (Português)